# xmcd CD database file
#
# Track frame offsets:
#	150
#	7019
#	19148
#	32261
#	45019
#	55286
#	71667
#	85138
#	93495
#	105544
#	117601
#	125942
#	148343
#	160845
#
# Disc length: 2290 seconds
#
# Revision: 1
# Processed by: cddbd v1.5.1PL0 Copyright (c) Steve Scherf et al.
# Submitted via: CDex 1.51
#
DISCID=bc08f00e
DTITLE=Various Artist - Bluegrass, A Collection Of American Favorites
DYEAR=2002
DGENRE=Bluegrass
TTITLE0=Arizona Smoke Review - Dueling Banjos
TTITLE1=Arizona Smoke Review - Black Mountain Rag
TTITLE2=Blackwater Boys - My Dixie Darling
TTITLE3=Arizona Smoke Review - Grandfather's Clock
TTITLE4=Arizona Smoke Review - Earl's Breakdown
TTITLE5=Arizona Smoke Review - Old Groundhog
TTITLE6=Arizona Smoke Review - The Battle Of New Orleans
TTITLE7=Arizona Smoke Review - Sailor's Hornpipe
TTITLE8=Blackwater Boys - Mule Skinner Blues
TTITLE9=Blackwater Boys - Shady Grove
TTITLE10=Arizona Smoke Review - Old Rebel
TTITLE11=Arizona Smoke Review - Reuben's Train
TTITLE12=Arizona Smoke Review - Orange Blossom Special
TTITLE13=Blackwater Boys - Blue Moon Of Kentucky
EXTD=YEAR: 2002
EXTT0=
EXTT1=
EXTT2=
EXTT3=
EXTT4=
EXTT5=
EXTT6=
EXTT7=
EXTT8=
EXTT9=
EXTT10=
EXTT11=
EXTT12=
EXTT13=
PLAYORDER=
